#!OML:ASF C:\ViconDB\ViconDB\414\Spring2016\041811\Spring2016.ASF
:FULLY-SPECIFIED
:DEGREES
186
root 7.95131 21.9366 -20.5356 -175.441 -2.47503 -179.725
lowerback 9.3853 -0.361303 -4.51338
upperback 0.910328 -1.0489 -0.124268
thorax -4.24187 -0.48101 2.54862
lowerneck -8.73964 -8.36485 -18.9508
upperneck 12.5833 -13.7949 23.8774
head 8.43427 -6.46061 9.79533
rclavicle 1.08338e-014 1.39149e-014
rhumerus -33.7742 19.1367 -65.6237
rradius 109.207
rwrist -7.80654
rhand -34.0918 -19.3746
rfingers 7.12502
rthumb -7.26817 -49.2297
lclavicle 1.08338e-014 1.39149e-014
lhumerus -27.3679 -12.2689 52.5144
lradius 95.8554
lwrist 2.30828
lhand -36.1492 13.64
lfingers 7.12502
lthumb -9.25377 43.4169
rfemur -12.9694 -19.3088 19.1621
rtibia 22.3373
rfoot -32.3605 7.09664
rtoes -15.6639
lfemur -12.2762 -2.74948 -12.5209
ltibia 14.3869
lfoot 4.80035 8.49092
ltoes -5.44467
187
root 7.93884 21.8356 -20.7909 -175.38 -2.4502 -179.333
lowerback 9.62736 -0.342484 -4.05757
upperback 1.13856 -0.996116 -0.114631
thorax -4.15007 -0.474119 2.29766
lowerneck -8.8384 -8.41124 -18.7491
upperneck 12.1914 -13.8009 23.9901
head 8.32575 -6.44339 9.78151
rclavicle 1.6201e-014 3.57812e-014
rhumerus -36.5076 19.5939 -67.0856
rradius 108.556
rwrist -6.65297
rhand -34.1871 -18.9336
rfingers 7.12502
rthumb -7.36022 -48.7856
lclavicle 1.6201e-014 3.57812e-014
lhumerus -29.9996 -13.691 53.3889
lradius 95.2122
lwrist 2.58984
lhand -36.1767 13.4383
lfingers 7.12502
lthumb -9.28031 43.214
rfemur -13.7441 -19.6294 19.8359
rtibia 21.5561
rfoot -33.2146 6.72935
rtoes -15.7372
lfemur -12.8984 -3.2238 -11.7822
ltibia 13.3104
lfoot 5.19034 9.37462
ltoes -5.78907
188
root 7.92659 21.7156 -21.0449 -175.465 -2.25284 -179.172
lowerback 10.0869 -0.237278 -3.90351
upperback 1.37724 -0.878234 -0.13634
thorax -4.16797 -0.430617 2.1786
lowerneck -8.86681 -8.35193 -18.7231
upperneck 11.7799 -13.6499 24.196
head 8.18142 -6.36137 9.86526
rclavicle 3.8763e-015 -9.14409e-015
rhumerus -39.321 19.904 -68.6352
rradius 107.926
rwrist -5.96248
rhand -34.0649 -18.251
rfingers 7.12502
rthumb -7.24218 -48.107
lclavicle 3.8763e-015 -9.14409e-015
lhumerus -32.7288 -15.0528 54.4912
lradius 94.6095
lwrist 2.64447
lhand -35.9743 14.0896
lfingers 7.12502
lthumb -9.08497 43.8739
rfemur -14.3728 -19.308 20.1688
rtibia 20.8764
rfoot -33.6226 6.66678
rtoes -15.8313
lfemur -13.3535 -3.63751 -11.2853
ltibia 12.3058
lfoot 5.82252 10.4389
ltoes -6.72751
189
root 7.91171 21.5838 -21.2953 -175.371 -2.04772 -179.13
lowerback 10.4815 -0.0920278 -3.8104
upperback 1.5319 -0.709237 -0.186364
thorax -4.23906 -0.356965 2.05577
lowerneck -8.90254 -8.45921 -18.8653
upperneck 11.3748 -13.7685 24.5682
head 8.13601 -6.41229 10.0004
rclavicle 9.34288e-015 1.15295e-014
rhumerus -42.2109 20.0123 -70.1103
rradius 107.164
rwrist -5.18094
rhand -34.0933 -17.7316
rfingers 7.12502
rthumb -7.26966 -47.5867
lclavicle 9.34288e-015 1.15295e-014
lhumerus -35.3699 -16.5319 55.8311
lradius 93.6486
lwrist 2.38601
lhand -36.1436 15.1556
lfingers 7.12502
lthumb -9.24833 44.9328
rfemur -15.2425 -19.1636 20.4516
rtibia 20.2634
rfoot -33.933 6.83889
rtoes -16.3051
lfemur -14.0401 -4.05614 -10.9034
ltibia 11.4574
lfoot 6.33289 11.9582
ltoes -6.66066
190
root 7.89622 21.4216 -21.5454 -175.49 -1.71998 -179.135
lowerback 11.1087 0.0805207 -3.89298
upperback 1.73554 -0.541111 -0.197941
thorax -4.38482 -0.284016 2.07291
lowerneck -8.88353 -8.42833 -18.8465
upperneck 10.9449 -13.6363 24.6912
head 7.97533 -6.34508 10.0507
rclavicle -5.96354e-016 -1.74931e-014
rhumerus -45.0356 20.0067 -71.6905
rradius 106.291
rwrist -4.68541
rhand -34.2627 -17.3581
rfingers 7.12502
rthumb -7.4331 -47.2075
lclavicle -5.96354e-016 -1.74931e-014
lhumerus -38.301 -17.5487 57.5482
lradius 92.5413
lwrist 2.7144
lhand -37.3253 15.1339
lfingers 7.12502
lthumb -10.3885 44.8573
rfemur -15.9571 -19.0195 20.6208
rtibia 19.8438
rfoot -33.8861 6.84538
rtoes -15.9903
lfemur -14.5368 -4.12719 -10.6454
ltibia 10.837
lfoot 6.73606 13.4309
ltoes -6.25117
191
root 7.88187 21.2407 -21.7973 -175.501 -1.49782 -179.053
lowerback 11.6561 0.214368 -3.78607
upperback 1.87582 -0.399376 -0.282999
thorax -4.55211 -0.22457 1.90743
lowerneck -8.93765 -8.45142 -18.6899
upperneck 10.707 -13.6533 24.7936
head 7.91376 -6.34344 10.0474
rclavicle -8.94531e-016 -6.36111e-015
rhumerus -47.8433 19.2337 -73.2726
rradius 105.081
rwrist -3.31828
rhand -33.4117 -16.2611
rfingers 7.12502
rthumb -6.61164 -46.1379
lclavicle -8.94531e-016 -6.36111e-015
lhumerus -41.2623 -18.6943 59.1177
lradius 91.3728
lwrist 2.83665
lhand -38.2129 14.9347
lfingers 7.12502
lthumb -11.2446 44.6134
rfemur -16.8265 -18.7225 20.9194
rtibia 19.5854
rfoot -33.1332 6.87449
rtoes -15.2821
lfemur -15.407 -3.83719 -10.3513
ltibia 10.7524
lfoot 6.69606 14.5103
ltoes -5.6662
192
root 7.86721 21.0314 -22.0477 -175.547 -1.35084 -178.923
lowerback 12.2086 0.307576 -3.68004
upperback 2.05978 -0.310884 -0.305259
thorax -4.67113 -0.194294 1.81455
lowerneck -9.00344 -8.4286 -18.5247
upperneck 10.417 -13.5712 24.8503
head 7.8091 -6.29373 10.0389
rclavicle 4.77083e-015 9.54166e-015
rhumerus -50.4406 18.4216 -74.8617
rradius 103.754
rwrist -2.54462
rhand -33.4684 -16.4445
rfingers 7.12502
rthumb -6.66643 -46.3195
lclavicle 4.77083e-015 9.54166e-015
lhumerus -44.0184 -18.8433 60.6568
lradius 89.8041
lwrist 1.6347
lhand -37.4977 14.663
lfingers 7.12502
lthumb -10.5547 44.3779
rfemur -17.7811 -18.9448 21.4119
rtibia 19.5175
rfoot -32.3665 6.84216
rtoes -14.0209
lfemur -16.5845 -3.30856 -10.1007
ltibia 11.4404
lfoot 6.23302 15.11
ltoes -5.91883
193
root 7.85948 20.8017 -22.2949 -175.507 -1.27236 -178.667
lowerback 12.7015 0.38004 -3.49984
upperback 2.21654 -0.230331 -0.271605
thorax -4.78396 -0.166973 1.73824
lowerneck -9.00396 -8.39254 -18.3832
upperneck 10.0674 -13.4704 24.9357
head 7.67389 -6.24136 10.049
rclavicle -4.96962e-016 -1.19271e-015
rhumerus -52.8812 17.3435 -76.3128
rradius 102.306
rwrist -2.17561
rhand -33.3977 -15.9562
rfingers 7.12502
rthumb -6.59819 -45.8334
lclavicle -4.96962e-016 -1.19271e-015
lhumerus -46.7385 -19.0236 62.3459
lradius 88.084
lwrist 0.930659
lhand -36.5142 13.5692
lfingers 7.12502
lthumb -9.60592 43.3302
rfemur -18.9264 -19.0833 22.1142
rtibia 19.6794
rfoot -30.7612 6.76683
rtoes -12.7168
lfemur -18.2237 -2.01145 -9.86868
ltibia 12.8173
lfoot 5.94183 14.7098
ltoes -5.90437
194
root 7.84086 20.5413 -22.539 -175.63 -1.27315 -178.539
lowerback 13.4209 0.427028 -3.29694
upperback 2.4027 -0.201058 -0.301815
thorax -4.98696 -0.168935 1.5913
lowerneck -8.96944 -8.32126 -18.2079
upperneck 9.74334 -13.3108 24.9345
head 7.51573 -6.16308 10.031
rclavicle 2.5842e-015 7.55382e-015
rhumerus -55.074 15.9699 -77.5186
rradius 100.564
rwrist -0.663299
rhand -32.3847 -16.0491
rfingers 7.12502
rthumb -5.62015 -45.9546
lclavicle 2.5842e-015 7.55382e-015
lhumerus -49.4104 -19.2708 64.137
lradius 86.3815
lwrist 0.947561
lhand -36.4766 13.5362
lfingers 7.12502
lthumb -9.56964 43.2989
rfemur -20.0585 -19.4165 22.6069
rtibia 20.1921
rfoot -29.568 6.63148
rtoes -11.7982
lfemur -19.9037 -0.898902 -9.85093
ltibia 14.6787
lfoot 5.5278 14.3801
ltoes -6.41621
